<svg width="512" height="512" viewBox="0 0 512 512" fill="none" xmlns="http://www.w3.org/2000/svg">
<g clip-path="url(#clip0_202_86)">
<rect width="512" height="512" fill="black"/>
<path d="M147.279 252.032L180.907 287.573L84.8277 389.12L51.2 353.579L147.279 252.032Z" fill="#BF6BF7"/>
<path d="M180.907 287.573L147.279 323.115L51.2 221.568L84.8277 186.027L180.907 287.573Z" fill="#BF6BF7"/>
<path d="M237.119 305.741C227.95 299.766 220.879 291.634 215.906 281.345C210.778 270.889 208.213 258.941 208.213 245.498C208.213 232.221 210.778 220.355 215.906 209.9C221.034 199.445 228.105 191.23 237.119 185.255C246.288 179.281 256.311 176.294 267.19 176.294C275.426 176.294 282.73 178.202 289.102 182.019C295.473 185.836 300.291 190.566 303.555 196.209H305.653L303.555 178.036V128H334.791V310.47H305.653V295.036H303.555C300.291 300.845 295.551 305.492 289.335 308.977C282.963 312.628 275.582 314.453 267.19 314.453C256 314.453 245.977 311.549 237.119 305.741ZM272.318 283.585C278.379 283.585 283.896 282.009 288.869 278.855C293.842 275.702 297.882 271.221 300.99 265.413C304.098 259.604 305.653 252.966 305.653 245.498C305.653 238.03 304.098 231.392 300.99 225.583C297.882 219.775 293.842 215.294 288.869 212.14C283.896 208.987 278.379 207.411 272.318 207.411C266.568 207.411 261.207 208.987 256.234 212.14C250.95 215.46 246.832 219.94 243.879 225.583C240.926 231.226 239.45 237.864 239.45 245.498C239.45 253.132 240.926 259.77 243.879 265.413C246.832 271.055 250.95 275.536 256.234 278.855C261.207 282.009 266.568 283.585 272.318 283.585Z" fill="white"/>
<path d="M381.31 244.502L339.118 180.526H376.182L399.259 217.617H400.891L422.57 180.526H460.8L417.908 244.502L460.8 310.47H423.736L400.192 272.383H398.793L375.949 310.47H338.884L381.31 244.502Z" fill="white"/>
<rect x="208.213" y="360.107" width="252.587" height="29.0133" fill="white"/>
</g>
<defs>
<clipPath id="clip0_202_86">
<rect width="512" height="512" fill="white"/>
</clipPath>
</defs>
</svg>
